<svg xmlns="http://www.w3.org/2000/svg" viewBox="0 0 600 420" role="img" aria-label="SAT question visual"><rect width="100%" height="100%" fill="white"/><path d="M95 45V335 M95 45H505" stroke="#cbd5e1" stroke-width="1"/><path d="M120 45V335 M95 70H505" stroke="#cbd5e1" stroke-width="1"/><path d="M145 45V335 M95 95H505" stroke="#cbd5e1" stroke-width="1"/><path d="M170 45V335 M95 120H505" stroke="#cbd5e1" stroke-width="1"/><path d="M195 45V335 M95 145H505" stroke="#cbd5e1" stroke-width="1"/><path d="M220 45V335 M95 170H505" stroke="#cbd5e1" stroke-width="1"/><path d="M245 45V335 M95 195H505" stroke="#cbd5e1" stroke-width="1"/><path d="M270 45V335 M95 220H505" stroke="#cbd5e1" stroke-width="1"/><path d="M295 45V335 M95 245H505" stroke="#cbd5e1" stroke-width="1"/><path d="M320 45V335 M95 270H505" stroke="#cbd5e1" stroke-width="1"/><path d="M345 45V335 M95 295H505" stroke="#cbd5e1" stroke-width="1"/><path d="M370 45V335 M95 320H505" stroke="#cbd5e1" stroke-width="1"/><path d="M95 190.0H505 M300.0 45V335" stroke="#172033" stroke-width="2"/><path d="M225 340 Q275 80 325 340" fill="none" stroke="#111827" stroke-width="4"/><path d="M95 155 H505" stroke="#111827" stroke-width="4"/></svg>