<svg xmlns="http://www.w3.org/2000/svg" viewBox="0 0 600 420" role="img" aria-label="SAT question visual"><rect width="100%" height="100%" fill="white"/><g style="font-family:Arial,sans-serif;fill:#172033;stroke:#172033" font-size="16"><rect x="85.0" y="70" width="215.0" height="42" fill="#f8fafc" stroke="#334155"/><text x="192.5" y="97" text-anchor="middle" stroke="none">Average pitching speed</text><rect x="300.0" y="70" width="215.0" height="42" fill="#f8fafc" stroke="#334155"/><text x="407.5" y="97" text-anchor="middle" stroke="none">Number of pitchers</text><rect x="85.0" y="112" width="215.0" height="42" fill="white" stroke="#334155"/><text x="192.5" y="139" text-anchor="middle" stroke="none">At least 30 mph but less than 35 mph</text><rect x="300.0" y="112" width="215.0" height="42" fill="white" stroke="#334155"/><text x="407.5" y="139" text-anchor="middle" stroke="none">12</text><rect x="85.0" y="154" width="215.0" height="42" fill="white" stroke="#334155"/><text x="192.5" y="181" text-anchor="middle" stroke="none">At least 35 mph but less than 40 mph</text><rect x="300.0" y="154" width="215.0" height="42" fill="white" stroke="#334155"/><text x="407.5" y="181" text-anchor="middle" stroke="none">7</text><rect x="85.0" y="196" width="215.0" height="42" fill="white" stroke="#334155"/><text x="192.5" y="223" text-anchor="middle" stroke="none">At least 40 mph but less than 45 mph</text><rect x="300.0" y="196" width="215.0" height="42" fill="white" stroke="#334155"/><text x="407.5" y="223" text-anchor="middle" stroke="none">4</text><rect x="85.0" y="238" width="215.0" height="42" fill="white" stroke="#334155"/><text x="192.5" y="265" text-anchor="middle" stroke="none">At least 45 mph but less than 50 mph</text><rect x="300.0" y="238" width="215.0" height="42" fill="white" stroke="#334155"/><text x="407.5" y="265" text-anchor="middle" stroke="none">1</text></g></svg>