<svg xmlns="http://www.w3.org/2000/svg" width="620" height="480" viewBox="0 0 620 480"><style>text{font:20px Arial;fill:#151515}.a{stroke:#222;stroke-width:3}.g{stroke:#aaa;stroke-width:1}.p{fill:#222}</style><g class="g"><path d="M70 40v380M110 40v380M150 40v380M190 40v380M230 40v380M270 40v380M310 40v380M350 40v380M390 40v380M430 40v380M470 40v380M510 40v380M550 40v380M70 40h480M70 80h480M70 120h480M70 160h480M70 200h480M70 240h480M70 280h480M70 320h480M70 360h480M70 400h480"/></g><path class="a" d="M70 120L550 330M70 400H565M310 420V30"/><g class="p"><circle cx="350" cy="240" r="7"/><circle cx="390" cy="260" r="7"/><circle cx="430" cy="280" r="7"/><circle cx="470" cy="300" r="7"/><circle cx="510" cy="320" r="7"/><circle cx="550" cy="340" r="7"/></g><text x="566" y="416">x</text><text x="320" y="42">y</text></svg>
