<svg xmlns="http://www.w3.org/2000/svg" width="760" height="430" viewBox="0 0 760 430"><style>text{font:23px Arial;fill:#151515}.h{font-weight:bold}.l{stroke:#222;stroke-width:2;fill:none}</style><rect class="l" x="55" y="40" width="650" height="350"/><path class="l" d="M255 40v350M480 40v350M55 110h650M55 166h650M55 222h650M55 278h650M55 334h650"/><g class="h" text-anchor="middle"><text x="155" y="83">Value</text><text x="367" y="72">Data set A</text><text x="367" y="96">frequency</text><text x="592" y="72">Data set B</text><text x="592" y="96">frequency</text></g><g text-anchor="middle"><text x="155" y="148">40</text><text x="155" y="204">43</text><text x="155" y="260">46</text><text x="155" y="316">49</text><text x="155" y="372">52</text><text x="367" y="148">2</text><text x="367" y="204">4</text><text x="367" y="260">5</text><text x="367" y="316">7</text><text x="367" y="372">8</text><text x="592" y="148">8</text><text x="592" y="204">7</text><text x="592" y="260">5</text><text x="592" y="316">4</text><text x="592" y="372">2</text></g></svg>
