<svg xmlns="http://www.w3.org/2000/svg" viewBox="0 0 420 330" role="img" aria-label="Graph of estimated boiling point versus molecular weight">
  <rect width="420" height="330" fill="white"/><g stroke="#9ca3af" stroke-width="1"> <path d="M55 40V290 M85 40V290 M115 40V290 M145 40V290 M175 40V290 M205 40V290 M235 40V290 M265 40V290 M295 40V290 M325 40V290 M55 50H345 M55 80H345 M55 110H345 M55 140H345 M55 170H345 M55 200H345 M55 230H345 M55 260H345"/></g><path d="M55 210 C105 95 160 62 225 45 C270 34 305 30 330 28" fill="none" stroke="#111827" stroke-width="4"/><path d="M55 170H350 M55 290V35" stroke="#111827" stroke-width="3"/><circle cx="198" cy="91" r="5" fill="#111827"/><g font-family="Arial,sans-serif" font-size="15" fill="#374151"><text x="70" y="187">-50</text><text x="70" y="157">0</text><text x="125" y="308">50</text><text x="195" y="308">150</text><text x="275" y="308">250</text><text x="355" y="173" font-style="italic">x</text><text x="38" y="45" font-style="italic">y</text></g></svg>
