<svg xmlns="http://www.w3.org/2000/svg" viewBox="0 0 520 390" role="img" aria-label="Rocket height graph"><rect width="520" height="390" fill="white"/><g stroke="#d1d5db"><path d="M70 45V330 M95 45V330 M120 45V330 M145 45V330 M170 45V330 M195 45V330 M220 45V330 M245 45V330 M270 45V330 M295 45V330 M320 45V330 M345 45V330 M370 45V330 M395 45V330 M420 45V330 M445 45V330 M470 45V330 M70 45H470 M70 85H470 M70 125H470 M70 165H470 M70 205H470 M70 245H470 M70 285H470 M70 330H470"/></g><path d="M70 330H485 M70 340V30" stroke="#111827" stroke-width="2" fill="none"/><path d="M70 300 Q170 20 260 145 T400 330" fill="none" stroke="#111827" stroke-width="4"/><circle cx="70" cy="300" r="6" fill="#111827"/><g font-family="Arial" font-size="16" fill="#111827"><text x="68" y="360">0</text><text x="165" y="360">5</text><text x="265" y="360">10</text><text x="365" y="360">15</text><text x="465" y="360">20</text><text x="35" y="290">50</text><text x="30" y="210">150</text><text x="30" y="130">250</text><text x="25" y="50">350</text><text x="230" y="385">Time (seconds)</text><text x="8" y="180" transform="rotate(-90 8 180)">Height above ground (meters)</text></g></svg>
